<?xml version="1.0" encoding="UTF-8" standalone="no"?>
<!-- Created with Inkscape (http://www.inkscape.org/) -->

<svg
   xmlns:dc="http://purl.org/dc/elements/1.1/"
   xmlns:cc="http://creativecommons.org/ns#"
   xmlns:rdf="http://www.w3.org/1999/02/22-rdf-syntax-ns#"
   xmlns:svg="http://www.w3.org/2000/svg"
   xmlns="http://www.w3.org/2000/svg"
   xmlns:sodipodi="http://sodipodi.sourceforge.net/DTD/sodipodi-0.dtd"
   xmlns:inkscape="http://www.inkscape.org/namespaces/inkscape"
   version="1.1"
   id="svg2"
   xml:space="preserve"
   width="400"
   height="400"
   viewBox="0 0 400.00001 400"
   sodipodi:docname="github.svg"
   inkscape:version="0.92.3 (2405546, 2018-03-11)"><metadata
     id="metadata8"><rdf:RDF><cc:Work
         rdf:about=""><dc:format>image/svg+xml</dc:format><dc:type
           rdf:resource="http://purl.org/dc/dcmitype/StillImage" /><dc:title /></cc:Work></rdf:RDF></metadata><defs
     id="defs6"><clipPath
       clipPathUnits="userSpaceOnUse"
       id="clipPath20"><path
         d="M 0,551.986 H 530.973 V 0 H 0 Z"
         id="path18"
         inkscape:connector-curvature="0" /></clipPath></defs><sodipodi:namedview
     pagecolor="#ffffff"
     bordercolor="#666666"
     borderopacity="1"
     objecttolerance="10"
     gridtolerance="10"
     guidetolerance="10"
     inkscape:pageopacity="0"
     inkscape:pageshadow="2"
     inkscape:window-width="2560"
     inkscape:window-height="1017"
     id="namedview4"
     showgrid="false"
     inkscape:zoom="1.8139287"
     inkscape:cx="-25.14747"
     inkscape:cy="215.87525"
     inkscape:window-x="-8"
     inkscape:window-y="-8"
     inkscape:window-maximized="1"
     inkscape:current-layer="g16"
     showguides="true"
     inkscape:guide-bbox="true"><sodipodi:guide
       position="74.424096,252.49063"
       orientation="1,0"
       id="guide822"
       inkscape:locked="false" /><sodipodi:guide
       position="324.70957,228.23389"
       orientation="1,0"
       id="guide824"
       inkscape:locked="false" /></sodipodi:namedview><g
     id="g10"
     inkscape:groupmode="layer"
     inkscape:label="GitHub-Mark"
     transform="matrix(1.3333333,0,0,-1.3333333,0,400.00001)"><g
       id="g14"><g
         id="g16"
         clip-path="url(#clipPath20)"><path
           style="fill:#ffffff;stroke:#000000;stroke-width:0;stroke-linecap:butt;stroke-linejoin:miter;stroke-miterlimit:4;stroke-dasharray:none;stroke-opacity:1"
           d="m 90.912173,239.01264 c -2.063929,0.043 -3.055041,-0.29124 -3.055041,-0.29124 -6.56223,-17.48702 -2.421669,-30.39796 -1.177368,-33.61001 -7.717652,-8.87994 -12.420536,-20.21425 -12.420536,-34.07601 0,-48.66426 28.166842,-59.56468 54.956442,-62.76894 -3.45146,-3.17308 -6.56148,-8.771055 -7.65763,-16.972729 -6.87332,-3.25104 -24.353133,-8.8557 -35.114896,10.549199 0,0 -6.369339,12.19351 -18.479102,13.09009 0,0 -11.784401,0.15515 -0.830071,-7.71907 0,0 7.911178,-3.90504 13.399446,-18.577601 9e-6,0 7.079933,-24.698475 40.639153,-17.026954 0.0592,-10.595127 0.16219,-18.587181 0.16219,-21.596534 0,-2.978739 -1.72529,-6.38191 -6.29899,-6.327117 l 0.16601,-0.164699 71.17242,0.198852 c -3.7971,0.425617 -5.22278,3.539365 -5.22278,6.292964 0,4.163204 0.14885,17.860786 0.14885,34.833244 0,11.850319 -3.8591,19.601275 -8.19196,23.522795 26.87849,3.14189 55.09002,13.87749 55.09002,62.6665 0,13.86176 -4.6747,25.19607 -12.40718,34.07601 1.24431,3.21205 5.3861,16.12299 -1.19834,33.61001 0,0 -10.11114,3.41472 -33.14561,-13.01979 -9.63597,2.82225 -19.95985,4.22553 -30.20316,4.2723 -10.2581,-0.0468 -20.5839,-1.45005 -30.20505,-4.2723 -15.84638,11.29873 -25.586164,13.2164 -30.126817,13.31103 z"
           id="path392"
           inkscape:connector-curvature="0" /><g
           id="g196"
           transform="matrix(5.685687,0,0,5.685687,149.85925,240.25202)"
           style="fill:#000000" /></g></g></g></svg>